<svg id="Group_44020" data-name="Group 44020" xmlns="http://www.w3.org/2000/svg" width="116.822" height="42" viewBox="0 0 116.822 42">
  <g id="Group_45513" data-name="Group 45513">
    <path id="Path_83192" data-name="Path 83192" d="M.958,114.157a.967.967,0,0,1-.714-.245.952.952,0,0,1-.245-.7v-5.141a.951.951,0,0,1,.245-.7.967.967,0,0,1,.714-.245H3.394a3.331,3.331,0,0,1,1.293.224,1.8,1.8,0,0,1,.814.634,1.66,1.66,0,0,1,.279.958,1.632,1.632,0,0,1-.354,1.058,1.773,1.773,0,0,1-.963.6v-.16a1.865,1.865,0,0,1,1.113.579,1.676,1.676,0,0,1,.395,1.148,1.775,1.775,0,0,1-.664,1.463,2.812,2.812,0,0,1-1.812.534Zm.8-4.243H3.065a1.209,1.209,0,0,0,.734-.18.649.649,0,0,0,.235-.549.634.634,0,0,0-.235-.544,1.238,1.238,0,0,0-.734-.174H1.757Zm0,2.9H3.244a1.159,1.159,0,0,0,.744-.195.717.717,0,0,0,.234-.584.7.7,0,0,0-.234-.579,1.18,1.18,0,0,0-.744-.19H1.757Z" transform="translate(0 -74.044)" fill="#008066"/>
    <path id="Path_83193" data-name="Path 83193" d="M31.123,113.911a.713.713,0,0,1-.829-.809.987.987,0,0,1,.125-.5,2.2,2.2,0,0,1,.324-.429l1.747-1.827a3.9,3.9,0,0,0,.554-.719,1.234,1.234,0,0,0,.165-.6.67.67,0,0,0-.249-.569,1.172,1.172,0,0,0-.719-.19,2.2,2.2,0,0,0-.509.065,2.619,2.619,0,0,0-.579.225.762.762,0,0,1-.484.07.654.654,0,0,1-.359-.22.775.775,0,0,1-.18-.389.733.733,0,0,1,.065-.434.786.786,0,0,1,.359-.354,3.643,3.643,0,0,1,.953-.359,4.572,4.572,0,0,1,.994-.11,3.464,3.464,0,0,1,1.372.24,1.831,1.831,0,0,1,.844.694,2.051,2.051,0,0,1,.289,1.123,2.733,2.733,0,0,1-.125.819,2.992,2.992,0,0,1-.4.8,5.9,5.9,0,0,1-.734.848l-1.617,1.6v-.459H34.6a.776.776,0,0,1,.564.19.733.733,0,0,1,.195.549.751.751,0,0,1-.195.554.764.764,0,0,1-.564.195Z" transform="translate(-20.82 -73.798)" fill="#008066"/>
    <path id="Path_83194" data-name="Path 83194" d="M59.221,114.157a.966.966,0,0,1-.714-.245.952.952,0,0,1-.245-.7v-5.141a.951.951,0,0,1,.245-.7.966.966,0,0,1,.714-.245h2.436a3.331,3.331,0,0,1,1.293.224,1.8,1.8,0,0,1,.814.634,1.657,1.657,0,0,1,.279.958,1.633,1.633,0,0,1-.354,1.058,1.775,1.775,0,0,1-.963.6v-.16a1.867,1.867,0,0,1,1.113.579,1.677,1.677,0,0,1,.394,1.148,1.776,1.776,0,0,1-.664,1.463,2.812,2.812,0,0,1-1.812.534Zm.8-4.243h1.308a1.209,1.209,0,0,0,.734-.18.648.648,0,0,0,.235-.549.634.634,0,0,0-.235-.544,1.238,1.238,0,0,0-.734-.174H60.02Zm0,2.9h1.487a1.158,1.158,0,0,0,.744-.195.716.716,0,0,0,.234-.584.7.7,0,0,0-.234-.579,1.179,1.179,0,0,0-.744-.19H60.02Z" transform="translate(-40.273 -74.044)" fill="#008066"/>
    <path id="Path_83195" data-name="Path 83195" d="M107.265,114.046a.82.82,0,0,1-.614-.22.848.848,0,0,1-.215-.619v-5.541a.812.812,0,0,1,.23-.624.913.913,0,0,1,.649-.215,1,1,0,0,1,.554.135,1.217,1.217,0,0,1,.375.444l2.146,3.853h-.35l2.137-3.853a1.3,1.3,0,0,1,.384-.444,1,1,0,0,1,.554-.135.831.831,0,0,1,.614.215.847.847,0,0,1,.215.624v5.541a.861.861,0,0,1-.21.619.975.975,0,0,1-1.233,0,.848.848,0,0,1-.215-.619v-3.434h.209l-1.607,2.8a1.163,1.163,0,0,1-.295.329.828.828,0,0,1-.823,0,1.019,1.019,0,0,1-.29-.329l-1.617-2.805h.23v3.444a.86.86,0,0,1-.21.619.817.817,0,0,1-.619.22" transform="translate(-73.572 -73.843)" fill="#008066"/>
    <path id="Path_83196" data-name="Path 83196" d="M143.864,118.781a2.278,2.278,0,0,1-1-.21,1.666,1.666,0,0,1-.679-.574,1.459,1.459,0,0,1-.245-.834,1.22,1.22,0,0,1,.28-.849,1.653,1.653,0,0,1,.9-.444,8.05,8.05,0,0,1,1.647-.135h.549v.839h-.549a3.141,3.141,0,0,0-.644.055.769.769,0,0,0-.375.17.391.391,0,0,0-.119.295.49.49,0,0,0,.165.379.681.681,0,0,0,.474.15.887.887,0,0,0,.444-.11.864.864,0,0,0,.315-.3.847.847,0,0,0,.12-.454V115.6a.622.622,0,0,0-.185-.509,1.025,1.025,0,0,0-.634-.15,3.042,3.042,0,0,0-.539.055,3.925,3.925,0,0,0-.669.195.66.66,0,0,1-.459.03.566.566,0,0,1-.294-.24.653.653,0,0,1-.1-.37.681.681,0,0,1,.129-.379.8.8,0,0,1,.385-.279,4.33,4.33,0,0,1,.883-.24,5.078,5.078,0,0,1,.744-.06,3.38,3.38,0,0,1,1.353.235,1.625,1.625,0,0,1,.8.719,2.58,2.58,0,0,1,.264,1.243v2.016a.959.959,0,0,1-.209.669.783.783,0,0,1-.609.23.813.813,0,0,1-.624-.23.946.946,0,0,1-.215-.669V117.6l.06.14a1.166,1.166,0,0,1-.229.549,1.213,1.213,0,0,1-.469.359,1.6,1.6,0,0,1-.659.13" transform="translate(-98.111 -78.558)" fill="#008066"/>
    <path id="Path_83197" data-name="Path 83197" d="M170,118.76a.925.925,0,0,1-.674-.23.9.9,0,0,1-.234-.669v-3.3a.9.9,0,0,1,.224-.659.862.862,0,0,1,.644-.229.844.844,0,0,1,.639.229.917.917,0,0,1,.22.659v.409h-.1a1.52,1.52,0,0,1,.514-.949,1.634,1.634,0,0,1,1.033-.369.54.54,0,0,1,.434.145.882.882,0,0,1,.155.574.963.963,0,0,1-.149.569.753.753,0,0,1-.569.249l-.229.02a1.207,1.207,0,0,0-.769.294.994.994,0,0,0-.24.724v1.637a.805.805,0,0,1-.9.9" transform="translate(-116.884 -78.557)" fill="#008066"/>
    <path id="Path_83198" data-name="Path 83198" d="M192.089,114.046a.878.878,0,0,1-.649-.23.9.9,0,0,1-.229-.669v-5.421a.905.905,0,0,1,.229-.669.878.878,0,0,1,.649-.23.909.909,0,0,1,.664.23.9.9,0,0,1,.235.669v3.294h.02l1.218-1.477a2.331,2.331,0,0,1,.464-.444,1.033,1.033,0,0,1,.584-.145.822.822,0,0,1,.569.18.611.611,0,0,1,.21.449.789.789,0,0,1-.22.539l-1.318,1.557v-.619l1.477,1.857a.7.7,0,0,1,.18.544.626.626,0,0,1-.255.424.886.886,0,0,1-.544.16,1.23,1.23,0,0,1-.639-.145,1.817,1.817,0,0,1-.479-.454l-1.248-1.537h-.02v1.238a.794.794,0,0,1-.9.9" transform="translate(-132.171 -73.843)" fill="#008066"/>
    <path id="Path_83199" data-name="Path 83199" d="M219.981,118.781a3.55,3.55,0,0,1-1.552-.314,2.3,2.3,0,0,1-1-.894,2.837,2.837,0,0,1-.015-2.7,2.386,2.386,0,0,1,.918-.9,2.7,2.7,0,0,1,1.333-.325,2.734,2.734,0,0,1,1,.175,2.105,2.105,0,0,1,.769.509,2.206,2.206,0,0,1,.484.8,3.155,3.155,0,0,1,.165,1.048.369.369,0,0,1-.11.295.529.529,0,0,1-.35.095h-3.055v-.839h2.216l-.16.13a1.516,1.516,0,0,0-.1-.6.745.745,0,0,0-.294-.349.908.908,0,0,0-.484-.12.966.966,0,0,0-.534.145.92.92,0,0,0-.345.424,1.786,1.786,0,0,0-.12.7v.09a1.368,1.368,0,0,0,.315,1.013,1.351,1.351,0,0,0,.973.3,2.686,2.686,0,0,0,.5-.055,3.21,3.21,0,0,0,.544-.155.655.655,0,0,1,.449-.035.566.566,0,0,1,.295.22.674.674,0,0,1,.115.349.712.712,0,0,1-.09.379.652.652,0,0,1-.329.284,3.408,3.408,0,0,1-.744.24,4,4,0,0,1-.794.08" transform="translate(-150.05 -78.558)" fill="#008066"/>
    <path id="Path_83200" data-name="Path 83200" d="M244.886,115.631a2.879,2.879,0,0,1-1.233-.23,1.525,1.525,0,0,1-.724-.694,2.525,2.525,0,0,1-.239-1.163v-1.627h-.34a.678.678,0,0,1-.494-.17.651.651,0,0,1-.175-.489.634.634,0,0,1,.175-.484.691.691,0,0,1,.494-.165h.34v-.619a.906.906,0,0,1,.229-.669,1.061,1.061,0,0,1,1.318,0,.905.905,0,0,1,.23.669v.619h.819a.708.708,0,0,1,.5.165.634.634,0,0,1,.174.484.651.651,0,0,1-.174.489.7.7,0,0,1-.5.17h-.819v1.567a.742.742,0,0,0,.174.544.759.759,0,0,0,.554.174,1.206,1.206,0,0,0,.27-.03,1.06,1.06,0,0,1,.239-.03.314.314,0,0,1,.26.095.745.745,0,0,1,.1.474,1.247,1.247,0,0,1-.09.5.547.547,0,0,1-.319.295,2.064,2.064,0,0,1-.379.085,2.844,2.844,0,0,1-.389.035" transform="translate(-167.057 -75.408)" fill="#008066"/>
    <path id="Path_83201" data-name="Path 83201" d="M266.452,120.558a.877.877,0,0,1-.649-.23.906.906,0,0,1-.229-.669v-5.1a.9.9,0,0,1,.225-.659.86.86,0,0,1,.643-.229.877.877,0,0,1,.654.229.9.9,0,0,1,.224.659v.579l-.11-.489a1.289,1.289,0,0,1,.584-.724,1.891,1.891,0,0,1,1.014-.274,1.988,1.988,0,0,1,1.877,1.188,3.63,3.63,0,0,1,0,2.745,1.977,1.977,0,0,1-1.877,1.2,1.908,1.908,0,0,1-.989-.259,1.286,1.286,0,0,1-.589-.679h.12v1.817a.9.9,0,0,1-.235.669.91.91,0,0,1-.664.23m1.8-3.085a.841.841,0,0,0,.474-.135.906.906,0,0,0,.325-.409,1.8,1.8,0,0,0,.12-.714,1.447,1.447,0,0,0-.26-.963.84.84,0,0,0-.659-.294.9.9,0,0,0-.48.129.865.865,0,0,0-.329.4,1.831,1.831,0,0,0-.12.724,1.447,1.447,0,0,0,.259.958.844.844,0,0,0,.669.3" transform="translate(-183.573 -78.558)" fill="#008066"/>
    <path id="Path_83202" data-name="Path 83202" d="M295.57,114.067a1.79,1.79,0,0,1-1.413-.514A2.285,2.285,0,0,1,293.7,112v-4.273a.906.906,0,0,1,.229-.669.879.879,0,0,1,.649-.229.91.91,0,0,1,.664.229.9.9,0,0,1,.235.669v4.213a.821.821,0,0,0,.145.539.468.468,0,0,0,.374.17.724.724,0,0,0,.145-.015c.05-.01.1-.018.165-.025a.284.284,0,0,1,.254.13,1.1,1.1,0,0,1,.085.529.827.827,0,0,1-.14.524.672.672,0,0,1-.429.224l-.229.03a2.129,2.129,0,0,1-.279.02" transform="translate(-203.017 -73.844)" fill="#008066"/>
    <path id="Path_83203" data-name="Path 83203" d="M314.253,118.781a2.279,2.279,0,0,1-1-.21,1.668,1.668,0,0,1-.679-.574,1.459,1.459,0,0,1-.245-.834,1.221,1.221,0,0,1,.279-.849,1.655,1.655,0,0,1,.9-.444,8.047,8.047,0,0,1,1.647-.135h.549v.839h-.549a3.146,3.146,0,0,0-.644.055.769.769,0,0,0-.374.17.391.391,0,0,0-.12.295.49.49,0,0,0,.165.379.681.681,0,0,0,.474.15.889.889,0,0,0,.444-.11.864.864,0,0,0,.315-.3.847.847,0,0,0,.12-.454V115.6a.621.621,0,0,0-.185-.509,1.024,1.024,0,0,0-.634-.15,3.036,3.036,0,0,0-.539.055,3.916,3.916,0,0,0-.669.195.66.66,0,0,1-.459.03.567.567,0,0,1-.295-.24.658.658,0,0,1-.1-.37.681.681,0,0,1,.13-.379.8.8,0,0,1,.384-.279,4.336,4.336,0,0,1,.883-.24,5.078,5.078,0,0,1,.744-.06,3.38,3.38,0,0,1,1.353.235,1.625,1.625,0,0,1,.8.719,2.583,2.583,0,0,1,.264,1.243v2.016a.96.96,0,0,1-.209.669.784.784,0,0,1-.609.23.812.812,0,0,1-.624-.23.946.946,0,0,1-.215-.669V117.6l.06.14a1.163,1.163,0,0,1-.23.549,1.21,1.21,0,0,1-.469.359,1.6,1.6,0,0,1-.659.13" transform="translate(-215.889 -78.558)" fill="#008066"/>
    <path id="Path_83204" data-name="Path 83204" d="M341.477,118.781a3.166,3.166,0,0,1-1.443-.309,2.248,2.248,0,0,1-.953-.894,2.683,2.683,0,0,1-.339-1.372,2.873,2.873,0,0,1,.19-1.073,2.135,2.135,0,0,1,.554-.8,2.5,2.5,0,0,1,.868-.5,3.415,3.415,0,0,1,1.123-.175,3.616,3.616,0,0,1,.609.055,2.828,2.828,0,0,1,.659.2.585.585,0,0,1,.335.274.73.73,0,0,1,.08.394.823.823,0,0,1-.119.379.521.521,0,0,1-.29.23.55.55,0,0,1-.414-.05,1.336,1.336,0,0,0-.334-.115,1.715,1.715,0,0,0-.334-.035,1.3,1.3,0,0,0-.474.08.9.9,0,0,0-.344.234,1.052,1.052,0,0,0-.215.384,1.67,1.67,0,0,0-.075.519,1.329,1.329,0,0,0,.29.908,1.032,1.032,0,0,0,.819.329,1.643,1.643,0,0,0,.329-.035,1.535,1.535,0,0,0,.339-.115.522.522,0,0,1,.409-.045.572.572,0,0,1,.29.235.749.749,0,0,1,.12.374.737.737,0,0,1-.09.39.61.61,0,0,1-.34.275,2.66,2.66,0,0,1-.644.2,3.53,3.53,0,0,1-.6.055" transform="translate(-234.149 -78.558)" fill="#008066"/>
    <path id="Path_83205" data-name="Path 83205" d="M365.055,118.781a3.55,3.55,0,0,1-1.552-.314,2.3,2.3,0,0,1-1-.894,2.837,2.837,0,0,1-.015-2.7,2.386,2.386,0,0,1,.918-.9,2.7,2.7,0,0,1,1.333-.325,2.734,2.734,0,0,1,1,.175,2.105,2.105,0,0,1,.769.509,2.206,2.206,0,0,1,.484.8,3.155,3.155,0,0,1,.165,1.048.369.369,0,0,1-.11.295.529.529,0,0,1-.35.095h-3.055v-.839h2.216l-.16.13a1.517,1.517,0,0,0-.1-.6.745.745,0,0,0-.294-.349.908.908,0,0,0-.484-.12.966.966,0,0,0-.534.145.92.92,0,0,0-.345.424,1.785,1.785,0,0,0-.12.7v.09a1.368,1.368,0,0,0,.315,1.013,1.351,1.351,0,0,0,.973.3,2.685,2.685,0,0,0,.5-.055,3.209,3.209,0,0,0,.544-.155.655.655,0,0,1,.449-.035.566.566,0,0,1,.295.22.674.674,0,0,1,.115.349.712.712,0,0,1-.09.379.652.652,0,0,1-.329.284,3.408,3.408,0,0,1-.744.24,4,4,0,0,1-.794.08" transform="translate(-250.329 -78.558)" fill="#008066"/>
    <path id="Path_83206" data-name="Path 83206" d="M18.85,34.981a1.967,1.967,0,0,1-1.971,1.971,1.926,1.926,0,0,1-1.843-1.276L13.5,31.225H5.636l-1.56,4.451a1.939,1.939,0,0,1-1.843,1.276A1.967,1.967,0,0,1,.263,34.981a2.575,2.575,0,0,1,.17-.822l5.359-14.7A3.88,3.88,0,0,1,9.577,16.65a3.873,3.873,0,0,1,3.8,2.807l5.3,14.7a2.566,2.566,0,0,1,.17.822m-6.522-7.173-2.311-6.735c-.1-.241-.241-.354-.44-.354s-.312.1-.411.369l-2.339,6.72Z" transform="translate(-0.182 -11.509)" fill="#008066"/>
    <path id="Path_83207" data-name="Path 83207" d="M73.3,18.678V32.9h7.783A2.041,2.041,0,0,1,83.1,34.869a1.971,1.971,0,0,1-2.013,1.942H71.627a2.172,2.172,0,0,1-2.3-2.269V18.678a2.037,2.037,0,0,1,1.985-2.027A1.982,1.982,0,0,1,73.3,18.678" transform="translate(-47.923 -11.51)" fill="#008066"/>
    <path id="Path_83208" data-name="Path 83208" d="M125.558,18.678V32.9h7.783a2.041,2.041,0,0,1,2.013,1.971,1.97,1.97,0,0,1-2.013,1.942h-9.456a2.172,2.172,0,0,1-2.3-2.269V18.678a2.037,2.037,0,0,1,1.985-2.027,1.982,1.982,0,0,1,1.985,2.027" transform="translate(-84.045 -11.51)" fill="#008066"/>
    <path id="Path_83209" data-name="Path 83209" d="M195.125,38.538a1.386,1.386,0,0,1-1.063-.4,1.526,1.526,0,0,1-.371-1.088V22.193a1.462,1.462,0,0,1,.4-1.1,1.5,1.5,0,0,1,1.088-.383,1.77,1.77,0,0,1,.977.235,2.093,2.093,0,0,1,.655.8l6.107,11.3h-.791l6.108-11.3a2.143,2.143,0,0,1,.643-.8,1.7,1.7,0,0,1,.964-.235,1.413,1.413,0,0,1,1.063.383,1.52,1.52,0,0,1,.371,1.1V37.054a1.56,1.56,0,0,1-.358,1.088,1.642,1.642,0,0,1-2.139,0,1.527,1.527,0,0,1-.371-1.088V25.606h.544l-5.193,9.47a2.007,2.007,0,0,1-.519.618,1.237,1.237,0,0,1-.742.2,1.294,1.294,0,0,1-.766-.21,1.814,1.814,0,0,1-.519-.606l-5.242-9.495h.593V37.054a1.56,1.56,0,0,1-.358,1.088,1.379,1.379,0,0,1-1.076.4" transform="translate(-133.885 -14.315)" fill="#51cc4e"/>
    <path id="Path_83210" data-name="Path 83210" d="M264.844,50.433a5.213,5.213,0,0,1-2.337-.507,4.035,4.035,0,0,1-1.607-1.372,3.423,3.423,0,0,1-.581-1.953,3.069,3.069,0,0,1,.692-2.114,4.139,4.139,0,0,1,2.25-1.125,20.1,20.1,0,0,1,4.179-.346h1.236V44.8h-1.212a16,16,0,0,0-2.448.148,2.489,2.489,0,0,0-1.3.507,1.3,1.3,0,0,0-.383,1,1.726,1.726,0,0,0,.569,1.335,2.26,2.26,0,0,0,1.582.519,2.728,2.728,0,0,0,1.447-.383,2.79,2.79,0,0,0,1-1.051,3.107,3.107,0,0,0,.371-1.533V42.5a2.449,2.449,0,0,0-.544-1.78,2.531,2.531,0,0,0-1.83-.544,7.6,7.6,0,0,0-1.545.173,8.246,8.246,0,0,0-1.743.594,1.192,1.192,0,0,1-.828.123.931.931,0,0,1-.556-.408,1.233,1.233,0,0,1-.2-.68,1.493,1.493,0,0,1,.2-.73,1.2,1.2,0,0,1,.668-.532,11.194,11.194,0,0,1,2.189-.668,10.428,10.428,0,0,1,1.916-.2,6.869,6.869,0,0,1,2.93.544,3.624,3.624,0,0,1,1.719,1.644,6.158,6.158,0,0,1,.569,2.831V48.8a1.687,1.687,0,0,1-.371,1.175,1.364,1.364,0,0,1-1.063.408,1.4,1.4,0,0,1-1.075-.408,1.651,1.651,0,0,1-.383-1.175V47.614h.2a3.349,3.349,0,0,1-1.953,2.473,4.233,4.233,0,0,1-1.756.346" transform="translate(-179.941 -26.161)" fill="#51cc4e"/>
    <path id="Path_83211" data-name="Path 83211" d="M307.468,50.368a1.427,1.427,0,0,1-1.582-1.583V39.439a1.575,1.575,0,0,1,.4-1.162,1.763,1.763,0,0,1,2.226,0,1.577,1.577,0,0,1,.4,1.162V41h-.247a3.776,3.776,0,0,1,1.36-2.25,5.135,5.135,0,0,1,2.695-.915.979.979,0,0,1,.828.26,1.465,1.465,0,0,1,.359.952,1.3,1.3,0,0,1-.285,1,1.485,1.485,0,0,1-1,.457l-.544.05a3.571,3.571,0,0,0-2.275.927,2.985,2.985,0,0,0-.767,2.188v5.119a1.621,1.621,0,0,1-.4,1.175,1.547,1.547,0,0,1-1.162.408" transform="translate(-211.438 -26.146)" fill="#51cc4e"/>
    <path id="Path_83212" data-name="Path 83212" d="M341.074,42.462a5.915,5.915,0,0,1-2.683-.544,3.475,3.475,0,0,1-1.6-1.6,5.86,5.86,0,0,1-.519-2.608V32.447h-1.286a1.265,1.265,0,0,1-.915-.309,1.31,1.31,0,0,1,0-1.719,1.3,1.3,0,0,1,.915-.3h1.286v-2.25a1.546,1.546,0,0,1,.408-1.162,1.584,1.584,0,0,1,1.15-.4,1.54,1.54,0,0,1,1.137.4,1.577,1.577,0,0,1,.4,1.162v2.25h2.621a1.3,1.3,0,0,1,.915.3,1.31,1.31,0,0,1,0,1.719,1.267,1.267,0,0,1-.915.309h-2.621v5.094a2.639,2.639,0,0,0,.519,1.78,2.127,2.127,0,0,0,1.682.593,3.325,3.325,0,0,0,.742-.074,4.58,4.58,0,0,1,.569-.1.58.58,0,0,1,.495.185,1.3,1.3,0,0,1,.2.853,2.259,2.259,0,0,1-.161.878.934.934,0,0,1-.581.532,6.813,6.813,0,0,1-.841.185,5.648,5.648,0,0,1-.915.087" transform="translate(-230.702 -18.19)" fill="#51cc4e"/>
    <path id="Path_83213" data-name="Path 83213" d="M199.7,27.473H143.735a4.53,4.53,0,0,1-4.058-2.548l-.051-.125L132.538,3.708a2.85,2.85,0,0,0-2.524-1.547h-7.347a1.081,1.081,0,1,1,0-2.161h7.347a5.022,5.022,0,0,1,4.5,2.824l.051.126,7.087,21.091a2.357,2.357,0,0,0,2.084,1.271H199.7a1.081,1.081,0,0,1,0,2.161" transform="translate(-84.045)" fill="#51cc4e"/>
  </g>
</svg>
