<svg xmlns="http://www.w3.org/2000/svg" width="36.877" height="42.145" viewBox="0 0 36.877 42.145">
  <path id="Icon_metro-file-text" data-name="Icon metro-file-text" d="M39.639,11.356a37.325,37.325,0,0,0-3.588-4.1,37.328,37.328,0,0,0-4.1-3.588C29.825,2.108,28.8,1.928,28.206,1.928H7.791A3.3,3.3,0,0,0,4.5,5.221v35.56a3.3,3.3,0,0,0,3.293,3.293H38.083a3.3,3.3,0,0,0,3.293-3.293V15.1c0-.59-.18-1.62-1.737-3.742ZM34.189,9.115a35.924,35.924,0,0,1,2.987,3.349H30.84V6.128a35.887,35.887,0,0,1,3.349,2.987Zm4.553,31.666a.667.667,0,0,1-.659.659H7.791a.667.667,0,0,1-.659-.659V5.221a.667.667,0,0,1,.659-.659H28.206v9.219A1.317,1.317,0,0,0,29.523,15.1h9.219Zm-6.585-4.61H13.718a1.317,1.317,0,1,1,0-2.634H32.157a1.317,1.317,0,0,1,0,2.634Zm0-5.268H13.718a1.317,1.317,0,1,1,0-2.634H32.157a1.317,1.317,0,0,1,0,2.634Zm0-5.268H13.718a1.317,1.317,0,1,1,0-2.634H32.157a1.317,1.317,0,0,1,0,2.634Z" transform="translate(-4.499 -1.928)" fill="#001c8e"/>
</svg>
