<svg xmlns="http://www.w3.org/2000/svg" width="15.5" height="20.667" viewBox="0 0 15.5 20.667">
  <path id="Icon_awesome-file-invoice" data-name="Icon awesome-file-invoice" d="M11.625,10.333H3.875v2.583h7.75Zm3.592-6.1L11.266.283A.968.968,0,0,0,10.58,0h-.246V5.167H15.5V4.92A.966.966,0,0,0,15.217,4.238ZM9.042,5.49V0H.969A.966.966,0,0,0,0,.969V19.7a.966.966,0,0,0,.969.969H14.531A.966.966,0,0,0,15.5,19.7V6.458H10.01A.972.972,0,0,1,9.042,5.49ZM2.583,2.906a.323.323,0,0,1,.323-.323H6.135a.323.323,0,0,1,.323.323v.646a.323.323,0,0,1-.323.323H2.906a.323.323,0,0,1-.323-.323Zm0,2.583a.323.323,0,0,1,.323-.323H6.135a.323.323,0,0,1,.323.323v.646a.323.323,0,0,1-.323.323H2.906a.323.323,0,0,1-.323-.323ZM12.917,17.76a.323.323,0,0,1-.323.323H9.365a.323.323,0,0,1-.323-.323v-.646a.323.323,0,0,1,.323-.323h3.229a.323.323,0,0,1,.323.323Zm0-8.073v3.875a.646.646,0,0,1-.646.646H3.229a.646.646,0,0,1-.646-.646V9.688a.646.646,0,0,1,.646-.646h9.042A.646.646,0,0,1,12.917,9.688Z" fill="#fe9a2d"/>
</svg>
