<svg xmlns="http://www.w3.org/2000/svg" width="20" height="20" viewBox="0 0 20 20">
  <g id="Icon_ionic-ios-add-circle-outline" data-name="Icon ionic-ios-add-circle-outline" transform="translate(-3.375 -3.375)">
    <path id="Path_35" data-name="Path 35" d="M19.938,14.842H16.373V11.277a.766.766,0,0,0-1.531,0v3.565H11.277a.733.733,0,0,0-.766.766.741.741,0,0,0,.766.766h3.565v3.565a.742.742,0,0,0,.766.766.762.762,0,0,0,.766-.766V16.373h3.565a.766.766,0,1,0,0-1.531Z" transform="translate(-2.232 -2.232)" fill="#fff"/>
    <path id="Path_36" data-name="Path 36" d="M13.375,4.721a8.65,8.65,0,1,1-6.12,2.534,8.6,8.6,0,0,1,6.12-2.534m0-1.346a10,10,0,1,0,10,10,10,10,0,0,0-10-10Z" fill="#fff"/>
  </g>
</svg>
