<svg xmlns="http://www.w3.org/2000/svg" width="46.077" height="46.069" viewBox="0 0 46.077 46.069">
  <g id="Group_557" data-name="Group 557" transform="translate(0)">
    <path id="Path_544" data-name="Path 544" d="M534.587,76.736v-5.4h2.727V55.065H540V71.3h35.3V55.067h2.706V71.346h2.659v5.409h-2.638v16.3h2.633v5.4H577.99v2.679h-2.7V98.466h-35.3v2.667h-2.7v-2.7h-2.7v-5.4h2.673v-16.3Zm5.426,16.27h35.238V76.763H540.013Z" transform="translate(-534.587 -55.065)" fill="#001c8e"/>
    <path id="Path_548" data-name="Path 548" d="M606.675,89.858V79.021h5.413v4.448h2.7V79.025h5.426V89.858Z" transform="translate(-598.547 -76.32)" fill="#001c8e"/>
    <path id="Path_549" data-name="Path 549" d="M759.354,83.438V78.99h5.409V89.833H751.224V78.991h5.409v4.448Z" transform="translate(-726.799 -76.292)" fill="#001c8e"/>
    <path id="Path_550" data-name="Path 550" d="M606.767,271.4h5.409v4.463h2.711v-4.452h5.42V282.24H606.767Z" transform="translate(-598.629 -247.005)" fill="#001c8e"/>
    <path id="Path_551" data-name="Path 551" d="M751.2,282.327V271.492h5.415v4.456h2.7V271.5h5.436v10.824Z" transform="translate(-726.776 -247.09)" fill="#001c8e"/>
  </g>
</svg>
