<svg id="Group_556" data-name="Group 556" xmlns="http://www.w3.org/2000/svg" width="46.412" height="46.069" viewBox="0 0 46.412 46.069">
  <path id="Path_538" data-name="Path 538" d="M711.189,729.507c-.209-.013-.419-.038-.628-.038q-14.7,0-29.392,0h-.539c-.021-.206.125-.264.211-.35.893-.9,1.8-1.789,2.684-2.7a.85.85,0,0,1,.673-.275q13.5.011,26.992.007Z" transform="translate(-664.777 -703.392)" fill="#001c8e"/>
  <path id="Path_539" data-name="Path 539" d="M532.377,820.712c-.156.033-.211-.046-.248-.186-.241-.919-.48-1.838-.741-2.751-.092-.322.166-.275.3-.312,1.716-.468,3.437-.922,5.155-1.382q19.376-5.192,38.749-10.4c.446-.12.619-.069.717.411.156.767.386,1.519.606,2.272.085.291.038.4-.283.488-3.747.989-7.488,2-11.231,3l-32.723,8.77C532.579,820.652,532.479,820.683,532.377,820.712Z" transform="translate(-530.961 -774.651)" fill="#001c8e"/>
  <path id="Path_540" data-name="Path 540" d="M579.159,506.207c.163.136.235.187.3.248.642.639,1.278,1.285,1.927,1.917.167.163.195.285,0,.434a2.125,2.125,0,0,0-.193.191q-16.016,16.016-32.024,32.039c-.3.3-.459.334-.758,0-.557-.615-1.162-1.187-1.759-1.765-.165-.16-.2-.277,0-.423a1.621,1.621,0,0,0,.161-.159q16.031-16.032,32.059-32.068A2.965,2.965,0,0,0,579.159,506.207Z" transform="translate(-544.538 -506.207)" fill="#001c8e"/>
  <path id="Path_541" data-name="Path 541" d="M554.832,539.133c-.893.891-1.739,1.729-2.576,2.575-.193.195-.374.052-.545.007q-5.482-1.461-10.96-2.937c-2.925-.785-5.849-1.576-8.779-2.343-.369-.1-.435-.23-.332-.576.228-.765.443-1.536.617-2.314.084-.376.232-.421.577-.327q7.157,1.934,14.32,3.846L554.4,539C554.519,539.035,554.633,539.073,554.832,539.133Z" transform="translate(-531.165 -530.384)" fill="#001c8e"/>
  <path id="Path_542" data-name="Path 542" d="M801.98,612.769c.851-.851,1.687-1.678,2.509-2.517.188-.192.367-.082.542-.035q4.937,1.316,9.87,2.642c1.441.386,2.881.778,4.326,1.147.316.081.406.182.305.515-.244.807-.451,1.626-.658,2.444-.062.246-.145.355-.43.279q-8.162-2.2-16.328-4.393A.862.862,0,0,1,801.98,612.769Z" transform="translate(-773.575 -599.389)" fill="#001c8e"/>
  <path id="Path_543" data-name="Path 543" d="M537,726.244c-1.039,1.04-2.064,2.062-3.083,3.091a.568.568,0,0,1-.453.148c-1.886,0-3.772,0-5.658,0-.253,0-.38-.04-.374-.343.02-.89.01-1.78.005-2.67,0-.185.007-.311.256-.31q4.616.017,9.232.018C536.933,726.181,536.944,726.2,537,726.244Z" transform="translate(-527.43 -703.405)" fill="#001c8e"/>
</svg>
