<svg xmlns="http://www.w3.org/2000/svg" width="18.05" height="12.033" viewBox="0 0 18.05 12.033">
  <path id="Icon_awesome-eye" data-name="Icon awesome-eye" d="M17.941,10.059A10.051,10.051,0,0,0,9.025,4.5,10.053,10.053,0,0,0,.109,10.06a1.014,1.014,0,0,0,0,.915,10.051,10.051,0,0,0,8.916,5.559,10.053,10.053,0,0,0,8.916-5.56A1.014,1.014,0,0,0,17.941,10.059Zm-8.916,4.97a4.513,4.513,0,1,1,4.513-4.513A4.513,4.513,0,0,1,9.025,15.029Zm0-7.521a2.987,2.987,0,0,0-.793.119,1.5,1.5,0,0,1-2.1,2.1,3,3,0,1,0,2.89-2.215Z" transform="translate(0 -4.5)" fill="#545758"/>
</svg>
