<svg xmlns="http://www.w3.org/2000/svg" width="17.138" height="14.996" viewBox="0 0 17.138 14.996">
  <path id="Icon_metro-printer" data-name="Icon metro-printer" d="M6.855,3.856h8.569V6H6.855V3.856ZM18.638,7.069h-15A1.074,1.074,0,0,0,2.571,8.141V13.5a1.074,1.074,0,0,0,1.071,1.071H6.855v4.285h8.569V14.567h3.213A1.074,1.074,0,0,0,19.709,13.5V8.141A1.074,1.074,0,0,0,18.638,7.069ZM4.713,10.283A1.071,1.071,0,1,1,5.784,9.212a1.071,1.071,0,0,1-1.071,1.071Zm9.64,7.5H7.926V12.425h6.427Z" transform="translate(-2.571 -3.856)" fill="#fe9a2d"/>
</svg>
