<svg xmlns="http://www.w3.org/2000/svg" width="78.151" height="60.676" viewBox="0 0 78.151 60.676">
  <g id="Group_625" data-name="Group 625" transform="translate(-656 -266.124)">
    <path id="Icon_material-print" data-name="Icon material-print" d="M48.9,18H11.1A8.089,8.089,0,0,0,3,26.1V42.3H13.8V53.1H46.2V42.3H57V26.1A8.089,8.089,0,0,0,48.9,18ZM40.8,47.7H19.2V34.2H40.8Zm8.1-18.9a2.7,2.7,0,1,1,2.7-2.7A2.708,2.708,0,0,1,48.9,28.8ZM46.2,4.5H13.8V15.3H46.2Z" transform="translate(653 273.7)" fill="#001c8e"/>
    <path id="Icon_metro-warning" data-name="Icon metro-warning" d="M14.646,4.116l10.12,20.171H4.526L14.646,4.116Zm0-2.188A1.746,1.746,0,0,0,13.21,2.981L2.9,23.526c-.79,1.4-.118,2.553,1.493,2.553H24.9c1.611,0,2.283-1.149,1.493-2.553h0L16.082,2.981a1.746,1.746,0,0,0-1.436-1.053Zm1.509,19.623a1.509,1.509,0,1,1-1.509-1.509A1.509,1.509,0,0,1,16.156,21.551Zm-1.509-3.019a1.509,1.509,0,0,1-1.509-1.509V12.494a1.509,1.509,0,1,1,3.019,0v4.528A1.509,1.509,0,0,1,14.646,18.532Z" transform="translate(707.429 264.196)" fill="#fe0000"/>
  </g>
</svg>
