<svg xmlns="http://www.w3.org/2000/svg" width="5.25" height="7.35" viewBox="0 0 5.25 7.35">
  <path id="Icon_awesome-rupee-sign" data-name="Icon awesome-rupee-sign" d="M5.053,3.3a.2.2,0,0,0,.2-.2V2.447a.2.2,0,0,0-.2-.2H.2a.2.2,0,0,0-.2.2v.734a.2.2,0,0,0,.2.2H1.6a1.184,1.184,0,0,1,1,.447H.2a.2.2,0,0,0-.2.2v.656a.2.2,0,0,0,.2.2H2.8a1.134,1.134,0,0,1-1.226.962H.2a.2.2,0,0,0-.2.2V6.9a.2.2,0,0,0,.063.145l2.708,2.5A.2.2,0,0,0,2.9,9.6H4.259a.2.2,0,0,0,.134-.342L1.917,6.973a2.248,2.248,0,0,0,2.269-2.1h.866a.2.2,0,0,0,.2-.2V4.022a.2.2,0,0,0-.2-.2H4.09A2.247,2.247,0,0,0,3.856,3.3Z" transform="translate(0 -2.25)"/>
</svg>
