<svg xmlns="http://www.w3.org/2000/svg" width="41.827" height="43" viewBox="0 0 41.827 43">
  <path id="Icon_material-settings" data-name="Icon material-settings" d="M40.3,26.607a16.755,16.755,0,0,0,.151-2.107,16.755,16.755,0,0,0-.151-2.107l4.537-3.548a1.085,1.085,0,0,0,.258-1.376l-4.3-7.439a1.081,1.081,0,0,0-1.312-.473l-5.354,2.15A15.708,15.708,0,0,0,30.495,9.6l-.817-5.7A1.048,1.048,0,0,0,28.624,3h-8.6a1.048,1.048,0,0,0-1.053.9l-.817,5.7a16.518,16.518,0,0,0-3.634,2.107L9.167,9.558a1.049,1.049,0,0,0-1.311.473l-4.3,7.439a1.06,1.06,0,0,0,.258,1.376L8.35,22.393A17.051,17.051,0,0,0,8.2,24.5a17.051,17.051,0,0,0,.151,2.107L3.813,30.154a1.085,1.085,0,0,0-.258,1.376l4.3,7.439a1.081,1.081,0,0,0,1.311.473l5.354-2.15A15.708,15.708,0,0,0,18.154,39.4l.817,5.7a1.048,1.048,0,0,0,1.053.9h8.6a1.048,1.048,0,0,0,1.054-.9l.817-5.7a16.518,16.518,0,0,0,3.633-2.107l5.354,2.15a1.049,1.049,0,0,0,1.312-.473l4.3-7.439a1.085,1.085,0,0,0-.258-1.376L40.3,26.607ZM24.324,32.025A7.525,7.525,0,1,1,31.849,24.5,7.533,7.533,0,0,1,24.324,32.025Z" transform="translate(-3.406 -3)" fill="#001c8e"/>
</svg>
