<svg xmlns="http://www.w3.org/2000/svg" width="50.73" height="40.582" viewBox="0 0 50.73 40.582">
  <path id="Icon_awesome-warehouse" data-name="Icon awesome-warehouse" d="M39.95,27.9H10.812a.636.636,0,0,0-.634.634l-.008,3.8a.636.636,0,0,0,.634.634H39.95a.636.636,0,0,0,.634-.634v-3.8A.636.636,0,0,0,39.95,27.9Zm0,7.61H10.788a.636.636,0,0,0-.634.634l-.008,3.8a.636.636,0,0,0,.634.634H39.95a.636.636,0,0,0,.634-.634v-3.8A.636.636,0,0,0,39.95,35.511Zm0-15.219H10.828a.636.636,0,0,0-.634.634l-.008,3.8a.636.636,0,0,0,.634.634H39.95a.636.636,0,0,0,.634-.634v-3.8A.636.636,0,0,0,39.95,20.292ZM48.392,9.274,26.824.293a3.817,3.817,0,0,0-2.925,0L2.338,9.274A3.814,3.814,0,0,0,0,12.785V39.95a.636.636,0,0,0,.634.634H6.975a.636.636,0,0,0,.634-.634V20.292a2.565,2.565,0,0,1,2.584-2.537H40.537a2.565,2.565,0,0,1,2.584,2.537V39.95a.636.636,0,0,0,.634.634H50.1a.636.636,0,0,0,.634-.634V12.785A3.814,3.814,0,0,0,48.392,9.274Z" transform="translate(0 -0.002)" fill="#001c8e"/>
</svg>
