<svg id="Group_554" data-name="Group 554" xmlns="http://www.w3.org/2000/svg" width="43" height="43" viewBox="0 0 43 43">
  <path id="Path_531" data-name="Path 531" d="M31.139,556.377V521.507a1.729,1.729,0,0,0,.077-.233,4.278,4.278,0,0,1,1.993-3.005,12.207,12.207,0,0,1,1.953-.785H70.032a.436.436,0,0,0,.108.058,4.58,4.58,0,0,1,3.915,4.789q0,16.614-.005,33.228a5.7,5.7,0,0,1-.128,1.286A4.572,4.572,0,0,1,69.3,560.4q-15.273,0-30.547,0c-1.048,0-2.1.024-3.142-.009a4.508,4.508,0,0,1-3.555-1.84A5.575,5.575,0,0,1,31.139,556.377Zm12.247-35.8v21.453H38.829v3.053H43.41v12.209h3.081V545.049h4.553v-3.042H46.457V520.578ZM61.8,532.824V520.585H58.714v12.239H54.146v3.057h4.592V557.3H61.81V535.864h4.56v-3.04Z" transform="translate(-31.139 -517.484)" fill="#001c8e"/>
  <path id="Path_532" data-name="Path 532" d="M31.139,556.377a5.575,5.575,0,0,0,.917,2.174,4.508,4.508,0,0,0,3.555,1.84c1.046.033,2.095.009,3.142.009q15.273,0,30.547,0a4.572,4.572,0,0,0,4.623-3.554,5.7,5.7,0,0,0,.128-1.286q.01-16.614.005-33.228a4.58,4.58,0,0,0-3.915-4.789.436.436,0,0,1-.108-.058h4.107v43h-43Z" transform="translate(-31.139 -517.484)" fill="#001c8e"/>
  <path id="Path_533" data-name="Path 533" d="M35.162,517.484a12.207,12.207,0,0,0-1.953.785,4.278,4.278,0,0,0-1.993,3.005,1.729,1.729,0,0,1-.077.233v-4.023Z" transform="translate(-31.139 -517.484)" fill="#001c8e"/>
</svg>
